<svg id="visual" viewBox="0 0 900 600" width="900" height="600" xmlns="http://www.w3.org/2000/svg" xmlns:xlink="http://www.w3.org/1999/xlink" version="1.1"><rect x="0" y="0" width="900" height="600" fill="#ffffff"></rect><defs><linearGradient id="grad1_0" x1="33.3%" y1="100%" x2="100%" y2="0%"><stop offset="20%" stop-color="#fcaf3c" stop-opacity="1"></stop><stop offset="80%" stop-color="#fcaf3c" stop-opacity="1"></stop></linearGradient></defs><defs><linearGradient id="grad1_1" x1="33.3%" y1="100%" x2="100%" y2="0%"><stop offset="20%" stop-color="#fcaf3c" stop-opacity="1"></stop><stop offset="80%" stop-color="#ffffff" stop-opacity="1"></stop></linearGradient></defs><defs><linearGradient id="grad2_0" x1="0%" y1="100%" x2="66.7%" y2="0%"><stop offset="20%" stop-color="#fcaf3c" stop-opacity="1"></stop><stop offset="80%" stop-color="#fcaf3c" stop-opacity="1"></stop></linearGradient></defs><defs><linearGradient id="grad2_1" x1="0%" y1="100%" x2="66.7%" y2="0%"><stop offset="20%" stop-color="#ffffff" stop-opacity="1"></stop><stop offset="80%" stop-color="#fcaf3c" stop-opacity="1"></stop></linearGradient></defs><g transform="translate(900, 600)"><path d="M-351.5 0C-352.8 -39.9 -354 -79.8 -334.3 -108.6C-314.7 -137.4 -274.2 -155.1 -248.4 -180.5C-222.5 -205.8 -211.4 -238.9 -188.7 -259.7C-166 -280.5 -131.6 -289.2 -98.3 -302.4C-64.9 -315.7 -32.4 -333.6 0 -351.5L0 0Z" fill="#ffd69f"></path><path d="M-175.8 0C-176.4 -20 -177 -39.9 -167.2 -54.3C-157.3 -68.7 -137.1 -77.5 -124.2 -90.2C-111.3 -102.9 -105.7 -119.4 -94.3 -129.8C-83 -140.3 -65.8 -144.6 -49.1 -151.2C-32.4 -157.9 -16.2 -166.8 0 -175.8L0 0Z" fill="#fcaf3c"></path></g><g transform="translate(0, 0)"><path d="M351.5 0C327.8 30.5 304 60.9 295.8 96.1C287.6 131.3 294.9 171.1 283.2 205.7C271.4 240.3 240.7 269.6 206.6 284.4C172.5 299.2 135.1 299.4 100.1 308.1C65.1 316.9 32.6 334.2 0 351.5L0 0Z" fill="#ffd69f"></path><path d="M175.8 0C163.9 15.2 152 30.5 147.9 48.1C143.8 65.6 147.4 85.6 141.6 102.9C135.7 120.2 120.4 134.8 103.3 142.2C86.3 149.6 67.6 149.7 50.1 154.1C32.6 158.5 16.3 167.1 0 175.8L0 0Z" fill="#fcaf3c"></path></g></svg>