<svg id="visual" viewBox="0 0 960 540" width="960" height="540" xmlns="http://www.w3.org/2000/svg" xmlns:xlink="http://www.w3.org/1999/xlink" version="1.1"><path d="M569 540L579.7 525C590.3 510 611.7 480 598.5 450C585.3 420 537.7 390 512.5 360C487.3 330 484.7 300 512.7 270C540.7 240 599.3 210 597.2 180C595 150 532 120 509.7 90C487.3 60 505.7 30 514.8 15L524 0L960 0L960 15C960 30 960 60 960 90C960 120 960 150 960 180C960 210 960 240 960 270C960 300 960 330 960 360C960 390 960 420 960 450C960 480 960 510 960 525L960 540Z" fill="#d60e0e" stroke-linecap="round" stroke-linejoin="miter"></path></svg>