<svg id="visual" viewBox="0 0 960 540" width="960" height="540" xmlns="http://www.w3.org/2000/svg" xmlns:xlink="http://www.w3.org/1999/xlink" version="1.1"><path d="M0 66L14.5 70.5C29 75 58 84 87.2 84.8C116.3 85.7 145.7 78.3 174.8 79.2C204 80 233 89 262 91.7C291 94.3 320 90.7 349 97.8C378 105 407 123 436.2 125.8C465.3 128.7 494.7 116.3 523.8 102C553 87.7 582 71.3 611 75.8C640 80.3 669 105.7 698 121.8C727 138 756 145 785.2 145.8C814.3 146.7 843.7 141.3 872.8 127.8C902 114.3 931 92.7 945.5 81.8L960 71L960 0L945.5 0C931 0 902 0 872.8 0C843.7 0 814.3 0 785.2 0C756 0 727 0 698 0C669 0 640 0 611 0C582 0 553 0 523.8 0C494.7 0 465.3 0 436.2 0C407 0 378 0 349 0C320 0 291 0 262 0C233 0 204 0 174.8 0C145.7 0 116.3 0 87.2 0C58 0 29 0 14.5 0L0 0Z" fill="#ffffff"></path><path d="M0 104L14.5 116.5C29 129 58 154 87.2 155.7C116.3 157.3 145.7 135.7 174.8 130.3C204 125 233 136 262 145C291 154 320 161 349 173.5C378 186 407 204 436.2 205.8C465.3 207.7 494.7 193.3 523.8 174.5C553 155.7 582 132.3 611 142.3C640 152.3 669 195.7 698 211C727 226.3 756 213.7 785.2 210C814.3 206.3 843.7 211.7 872.8 209.8C902 208 931 199 945.5 194.5L960 190L960 69L945.5 79.8C931 90.7 902 112.3 872.8 125.8C843.7 139.3 814.3 144.7 785.2 143.8C756 143 727 136 698 119.8C669 103.7 640 78.3 611 73.8C582 69.3 553 85.7 523.8 100C494.7 114.3 465.3 126.7 436.2 123.8C407 121 378 103 349 95.8C320 88.7 291 92.3 262 89.7C233 87 204 78 174.8 77.2C145.7 76.3 116.3 83.7 87.2 82.8C58 82 29 73 14.5 68.5L0 64Z" fill="#ffe4c8"></path><path d="M0 330L14.5 341.8C29 353.7 58 377.3 87.2 370.2C116.3 363 145.7 325 174.8 301.5C204 278 233 269 262 280.7C291 292.3 320 324.7 349 335.5C378 346.3 407 335.7 436.2 323.2C465.3 310.7 494.7 296.3 523.8 280.2C553 264 582 246 611 271.2C640 296.3 669 364.7 698 372.7C727 380.7 756 328.3 785.2 304C814.3 279.7 843.7 283.3 872.8 287.8C902 292.3 931 297.7 945.5 300.3L960 303L960 188L945.5 192.5C931 197 902 206 872.8 207.8C843.7 209.7 814.3 204.3 785.2 208C756 211.7 727 224.3 698 209C669 193.7 640 150.3 611 140.3C582 130.3 553 153.7 523.8 172.5C494.7 191.3 465.3 205.7 436.2 203.8C407 202 378 184 349 171.5C320 159 291 152 262 143C233 134 204 123 174.8 128.3C145.7 133.7 116.3 155.3 87.2 153.7C58 152 29 127 14.5 114.5L0 102Z" fill="#fbca93"></path><path d="M0 390L14.5 398C29 406 58 422 87.2 419.3C116.3 416.7 145.7 395.3 174.8 380.2C204 365 233 356 262 366.7C291 377.3 320 407.7 349 413.8C378 420 407 402 436.2 390.3C465.3 378.7 494.7 373.3 523.8 359.8C553 346.3 582 324.7 611 342.7C640 360.7 669 418.3 698 425.7C727 433 756 390 785.2 371.2C814.3 352.3 843.7 357.7 872.8 355.8C902 354 931 345 945.5 340.5L960 336L960 301L945.5 298.3C931 295.7 902 290.3 872.8 285.8C843.7 281.3 814.3 277.7 785.2 302C756 326.3 727 378.7 698 370.7C669 362.7 640 294.3 611 269.2C582 244 553 262 523.8 278.2C494.7 294.3 465.3 308.7 436.2 321.2C407 333.7 378 344.3 349 333.5C320 322.7 291 290.3 262 278.7C233 267 204 276 174.8 299.5C145.7 323 116.3 361 87.2 368.2C58 375.3 29 351.7 14.5 339.8L0 328Z" fill="#f2b05e"></path><path d="M0 541L14.5 541C29 541 58 541 87.2 541C116.3 541 145.7 541 174.8 541C204 541 233 541 262 541C291 541 320 541 349 541C378 541 407 541 436.2 541C465.3 541 494.7 541 523.8 541C553 541 582 541 611 541C640 541 669 541 698 541C727 541 756 541 785.2 541C814.3 541 843.7 541 872.8 541C902 541 931 541 945.5 541L960 541L960 334L945.5 338.5C931 343 902 352 872.8 353.8C843.7 355.7 814.3 350.3 785.2 369.2C756 388 727 431 698 423.7C669 416.3 640 358.7 611 340.7C582 322.7 553 344.3 523.8 357.8C494.7 371.3 465.3 376.7 436.2 388.3C407 400 378 418 349 411.8C320 405.7 291 375.3 262 364.7C233 354 204 363 174.8 378.2C145.7 393.3 116.3 414.7 87.2 417.3C58 420 29 404 14.5 396L0 388Z" fill="#e59720"></path></svg>